# xmcd CD database file
#
# Track frame offsets:
#	150
#	7726
#	16879
#	37231
#	66019
#	108819
#	130117
#	148760
#	203442
#	226064
#	245268
#	253831
#
# Disc length: 3640 seconds
#
# Revision: 2
# Processed by: cddbd v1.4PL0 Copyright (c) Steve Scherf et al.
# Submitted via: CDex 1.40Beta5
#
DISCID=920e360c
DTITLE=The Bar-J Wranglers - Live on Stage - Vol. 10
DYEAR=1900
DGENRE=Country
TTITLE0=Cowboy Jubilee
TTITLE1=Tumbling Tumbleweeds
TTITLE2=Skyball Paint
TTITLE3=He's a Killer
TTITLE4=Listen to a Mockingbird
TTITLE5=Rooster's Revenge
TTITLE6=Long Night's Ride
TTITLE7=Medley: Lone Prarie - Red River Valley - Cool Water - Texas Plains -
TTITLE7=Strawberry Roan - Orange Blossom Special
TTITLE8=Foolish Questions
TTITLE9=Shenandoah
TTITLE10=So Long to the Red River Valley
TTITLE11=Cowboy Camp Meeting
EXTD=ID3G:   2
EXTT0=
EXTT1=
EXTT2=
EXTT3=
EXTT4=
EXTT5=
EXTT6=
EXTT7=
EXTT8=
EXTT9=
EXTT10=
EXTT11=
PLAYORDER=
